<?xml version="1.0" standalone="no"?>
<!DOCTYPE svg PUBLIC "-//W3C//DTD SVG 20010904//EN"
 "http://www.w3.org/TR/2001/REC-SVG-20010904/DTD/svg10.dtd">
<svg version="1.0" xmlns="http://www.w3.org/2000/svg"
 width="711.000000pt" height="768.000000pt" viewBox="0 0 711.000000 768.000000"
 preserveAspectRatio="xMidYMid meet">
<metadata>
Created by potrace 1.16, written by Peter Selinger 2001-2019
</metadata>
<g transform="translate(0.000000,768.000000) scale(0.100000,-0.100000)"
fill="whitesmoke" stroke="none">
<path d="M3610 6067 c-95 -27 -155 -82 -191 -177 -23 -61 -24 -90 -3 -159 31
-106 144 -191 254 -191 136 0 270 129 270 259 0 173 -172 312 -330 268z"/>
<path d="M2527 5729 c-22 -11 -51 -40 -68 -66 -99 -157 64 -351 235 -279 91
38 140 150 105 243 -12 34 -64 90 -101 109 -39 20 -126 17 -171 -7z"/>
<path d="M3500 5455 c-146 -33 -324 -150 -515 -340 -146 -144 -244 -269 -438
-560 -229 -345 -344 -481 -459 -549 -60 -35 -126 -40 -158 -11 -105 93 -68
366 82 619 99 165 200 240 323 238 75 -1 131 -25 205 -88 29 -25 56 -41 59
-37 4 4 38 55 76 112 38 57 105 142 149 188 l80 85 -29 24 c-49 39 -165 92
-240 110 -271 63 -623 -156 -858 -534 -60 -97 -100 -202 -126 -329 -24 -114
-26 -186 -10 -300 13 -97 37 -151 93 -217 120 -140 294 -177 520 -111 144 42
268 137 517 398 l117 122 118 -116 c223 -217 412 -321 636 -349 271 -34 539
81 851 367 54 50 72 61 85 54 9 -6 67 -60 127 -121 119 -121 207 -192 297
-240 67 -36 185 -50 256 -31 56 16 124 83 158 156 56 123 72 361 35 507 -58
224 -213 388 -396 418 -91 15 -127 12 -213 -15 -109 -34 -282 -151 -282 -189
0 -31 159 -272 186 -283 8 -3 36 14 64 41 64 60 159 121 222 142 99 32 166 1
214 -101 45 -95 27 -373 -30 -457 -95 -143 -323 54 -662 573 -57 87 -104 162
-104 165 0 14 -169 256 -225 324 -146 173 -272 269 -425 322 -75 26 -217 32
-300 13z m442 -475 c81 -30 153 -100 257 -249 133 -190 125 -175 107 -208 -26
-52 -148 -196 -261 -309 -113 -113 -206 -174 -290 -190 -49 -9 -111 30 -215
135 -127 128 -320 418 -320 481 0 21 19 44 83 101 105 95 159 137 226 178 149
90 284 110 413 61z m1224 -111 c173 -85 294 -311 294 -549 0 -78 -19 -218 -36
-265 -12 -34 -96 -155 -122 -175 -54 -43 -156 -49 -253 -16 -50 17 -140 77
-133 88 3 4 24 8 47 8 24 0 67 7 97 16 30 8 70 18 88 21 80 13 129 123 139
312 7 124 -8 192 -57 259 -42 58 -73 76 -132 75 -70 -1 -193 -64 -280 -143
l-67 -61 -48 66 c-61 84 -132 197 -132 210 0 16 97 93 164 130 140 79 302 87
431 24z m-715 -512 l91 -111 -29 -26 c-16 -14 -77 -67 -136 -118 -124 -108
-274 -202 -325 -202 -58 0 -174 31 -252 67 l-75 35 45 12 c121 32 242 128 420
336 61 70 120 134 132 143 21 13 24 13 30 -5 4 -11 49 -69 99 -131z"/>
<path d="M4952 5319 c-65 -32 -97 -87 -97 -165 0 -54 4 -67 31 -100 51 -63 75
-76 142 -77 169 -1 252 186 135 307 -21 21 -48 42 -61 47 -40 15 -105 10 -150
-12z m171 -15 c12 -10 35 -33 50 -52 23 -30 27 -45 27 -97 0 -62 -1 -63 -49
-108 -55 -52 -82 -62 -147 -54 -79 9 -134 78 -134 169 0 67 31 116 92 147 50
26 123 23 161 -5z"/>
</g>
</svg>
